<svg width="11" height="13" viewBox="0 0 11 13" fill="none" xmlns="http://www.w3.org/2000/svg">
<path d="M7.36246 2.62437C7.82509 2.08217 8.05301 1.38526 7.99782 0.681641C7.29104 0.754115 6.63816 1.08391 6.16929 1.6053C5.94004 1.86002 5.76446 2.15635 5.65259 2.47735C5.54072 2.79836 5.49474 3.13774 5.5173 3.4761C5.87082 3.47966 6.22055 3.40485 6.54017 3.25731C6.85978 3.10978 7.14094 2.89336 7.36246 2.62437Z" fill="currentColor"/>
<path d="M8.91787 6.99777C8.924 6.53324 9.05039 6.07776 9.28527 5.67373C9.52015 5.2697 9.8559 4.93023 10.2613 4.68692C10.0037 4.32785 9.66402 4.03236 9.26906 3.8239C8.8741 3.61544 8.4348 3.49976 7.98604 3.48606C7.02876 3.38795 6.10072 4.0453 5.6129 4.0453C5.11565 4.0453 4.36459 3.4958 3.55581 3.51204C3.03268 3.52854 2.52284 3.67706 2.07598 3.94313C1.62912 4.20919 1.26047 4.58373 1.00595 5.03025C-0.096529 6.89382 0.725825 9.63266 1.78193 11.139C2.31032 11.8767 2.92786 12.7006 3.73591 12.6714C4.52662 12.6394 4.82194 12.1791 5.7764 12.1791C6.722 12.1791 6.99907 12.6714 7.82351 12.6528C8.67199 12.6394 9.20657 11.9119 9.71643 11.1673C10.0961 10.6417 10.3882 10.0608 10.582 9.44616C10.0891 9.24261 9.66842 8.9019 9.37249 8.46651C9.07655 8.03111 8.91844 7.5203 8.91787 6.99777Z" fill="currentColor"/>
</svg>
