<svg width="82" height="30" viewBox="0 0 82 30" fill="none" xmlns="http://www.w3.org/2000/svg">
<rect x="8.43164" y="10.5834" width="6.05791" height="5.58903" fill="#202126"/>
<path fill-rule="evenodd" clip-rule="evenodd" d="M1.59989 0.00118013C1.5602 0.0148898 1.56231 0.148836 1.56697 0.444077C1.5689 0.56669 1.57128 0.717121 1.57128 0.898313C1.57127 4.04594 4.11492 4.68615 4.11492 4.68615C4.11492 4.68615 1.57127 4.43476 1.57128 5.11295C1.57128 5.79113 3.79427 6.66009 3.79427 6.66009C3.79427 6.66009 0 7.26229 0 7.94048C0 8.1553 0.257181 8.19936 0.720776 8.27879C1.31424 8.38046 2.24597 8.54009 3.40946 9.19009C1.80521 11.3575 0.85702 14.0369 0.85702 16.9369C0.85702 24.1514 6.72527 30 13.9641 30C16.5704 30 18.9991 29.2418 21.0402 27.9347C20.8826 27.7172 20.8243 27.4213 20.9356 27.1258C21.5439 25.5108 21.7958 24.3331 21.7303 23.3085C21.6657 22.2971 21.2884 21.3864 20.5393 20.3112C20.1272 19.7197 19.7153 19.2652 19.3213 18.8593C19.2176 18.7524 19.1127 18.6467 19.0083 18.5414L19.0079 18.541C18.725 18.2557 18.4456 17.9739 18.2011 17.6827C17.8555 17.271 17.5568 16.8165 17.3478 16.2325C17.1398 15.6512 17.0283 14.9632 17.0283 14.0912C17.0283 11.7227 18.6211 9.82324 20.5582 9.03094C21.7644 8.53756 23.1318 8.46403 24.3579 8.97735C21.9616 5.87376 18.1972 3.87377 13.9641 3.87377C13.8176 3.87377 13.6717 3.87617 13.5263 3.88092C4.88053 3.74926 2.46854 0.957164 1.80777 0.192266C1.69465 0.0613284 1.63286 -0.0102049 1.59989 0.00118013ZM12.137 14.938C11.7974 14.8185 11.432 14.7535 11.0513 14.7535C10.7158 14.7535 10.392 14.804 10.0874 14.8979C9.85645 14.969 9.74099 15.0046 9.65233 14.9877C9.57532 14.9731 9.50292 14.9323 9.45058 14.8741C9.39034 14.8072 9.37014 14.7257 9.32974 14.5629C9.26826 14.315 9.23499 14.0501 9.23499 13.7748C9.23499 12.3857 10.0824 11.2595 11.1278 11.2595C12.1732 11.2595 13.0207 12.3857 13.0207 13.7748C13.0207 14.0735 12.9815 14.3601 12.9096 14.6259C12.8654 14.7893 12.8433 14.871 12.7805 14.9371C12.7261 14.9944 12.6513 15.0336 12.5731 15.0458C12.4829 15.0598 12.3676 15.0192 12.137 14.938Z" fill="url(#paint0_linear_1831_2777)"/>
<path d="M20.907 20.058C19.1822 17.5823 17.4756 17.4286 17.4756 14.0913C17.4756 9.77257 23.296 7.07396 26.0413 10.9057C27.22 12.5509 27.616 15.0892 27.616 17.0746C27.616 21.5079 25.3674 25.421 21.9348 27.766C21.6074 27.9897 21.2151 27.652 21.3544 27.2821C22.5873 24.009 22.4634 22.292 20.907 20.058Z" fill="url(#paint1_radial_1831_2777)"/>
<path d="M37.6416 9.22841V24.9606H40.4966V20.2747L42.2434 18.216L46.9453 24.9606H50.3774L44.2288 16.2879L50.3235 9.22841H46.8375L40.689 16.4569H40.4966V9.22841H37.6416Z" fill="white"/>
<path fill-rule="evenodd" clip-rule="evenodd" d="M53.0452 24.4536C53.9071 24.9452 54.9306 25.191 56.1156 25.191C57.034 25.191 57.8497 25.0528 58.5628 24.7762C59.2759 24.4946 59.8607 24.1002 60.3173 23.5932C60.779 23.0811 61.092 22.4819 61.2561 21.7957L58.6551 21.5038C58.532 21.8367 58.3499 22.1158 58.1087 22.3411C57.8676 22.5664 57.5829 22.738 57.2546 22.8558C56.9262 22.9685 56.5594 23.0248 56.1541 23.0248C55.5488 23.0248 55.0203 22.8968 54.5689 22.6407C54.1174 22.3795 53.766 22.0057 53.5146 21.5192C53.2717 21.0441 53.1462 20.4782 53.138 19.8215H61.3716V18.9688C61.3716 17.9344 61.2279 17.0433 60.9406 16.2956C60.6533 15.5428 60.2583 14.9231 59.7555 14.4366C59.2579 13.9501 58.6833 13.5916 58.0318 13.3612C57.3854 13.1256 56.6979 13.0078 55.9694 13.0078C54.8408 13.0078 53.8583 13.2664 53.0221 13.7837C52.1859 14.2958 51.5344 15.0127 51.0675 15.9346C50.6058 16.8512 50.3749 17.9164 50.3749 19.1302C50.3749 20.3643 50.6058 21.4372 51.0675 22.3488C51.5292 23.2552 52.1885 23.9568 53.0452 24.4536ZM53.1432 17.9472L53.138 19.8215C53.1377 19.7986 53.1375 19.7755 53.1375 19.7524V18.1162C53.1427 17.5887 53.2632 17.1047 53.4992 16.6643C53.7403 16.2188 54.0764 15.8603 54.5073 15.5889C54.9383 15.3123 55.4385 15.1741 56.0079 15.1741C56.5415 15.1741 57.0083 15.2944 57.4085 15.5351C57.8137 15.7758 58.1293 16.1061 58.355 16.526C58.5807 16.9409 58.6961 17.4146 58.7013 17.9472H53.1432Z" fill="white"/>
<path d="M68.5277 25.191C67.3426 25.191 66.3191 24.9452 65.4572 24.4536C64.6005 23.9568 63.9413 23.2552 63.4795 22.3488C63.0178 21.4372 62.787 20.3643 62.787 19.1302C62.787 17.9164 63.0178 16.8512 63.4795 15.9346C63.9464 15.0127 64.5979 14.2958 65.4342 13.7837C66.2704 13.2664 67.2528 13.0078 68.3815 13.0078C69.11 13.0078 69.7974 13.1256 70.4438 13.3612C71.0954 13.5916 71.6699 13.9501 72.1676 14.4366C72.6703 14.9231 73.0654 15.5428 73.3527 16.2956C73.6399 17.0433 73.7836 17.9344 73.7836 18.9688V19.8215H65.55L65.5553 17.9472H71.1133C71.1082 17.4146 70.9928 16.9409 70.767 16.526C70.5413 16.1061 70.2258 15.7758 69.8205 15.5351C69.4203 15.2944 68.9535 15.1741 68.4199 15.1741C67.8505 15.1741 67.3503 15.3123 66.9194 15.5889C66.4884 15.8603 66.1524 16.2188 65.9113 16.6643C65.7007 17.0573 65.582 17.4849 65.5553 17.9472C65.552 18.003 65.5501 18.0593 65.5496 18.1162V19.7524C65.5496 19.7755 65.5497 19.7986 65.55 19.8215C65.5582 20.4782 65.6838 21.0441 65.9267 21.5192C66.178 22.0057 66.5295 22.3795 66.9809 22.6407C67.4324 22.8968 67.9608 23.0248 68.5662 23.0248C68.9714 23.0248 69.3383 22.9685 69.6666 22.8558C69.9949 22.738 70.2797 22.5664 70.5208 22.3411C70.7619 22.1158 70.944 21.8367 71.0671 21.5038L73.6682 21.7957C73.504 22.4819 73.1911 23.0811 72.7293 23.5932C72.2727 24.1002 71.6879 24.4946 70.9748 24.7762C70.2617 25.0528 69.446 25.191 68.5277 25.191Z" fill="white"/>
<path d="M79.2775 10.3346H76.4918V13.1615H74.8142V15.3123H76.4918V21.8725C76.4867 22.61 76.6457 23.2245 76.9689 23.7161C77.2973 24.2078 77.741 24.5714 78.3002 24.8069C78.8594 25.0374 79.4879 25.1424 80.1856 25.1219C80.5806 25.1117 80.9141 25.0758 81.186 25.0144C81.463 24.9529 81.6759 24.8966 81.8247 24.8454L81.3553 22.6714C81.2783 22.6919 81.1654 22.715 81.0167 22.7406C80.873 22.7662 80.714 22.779 80.5396 22.779C80.3087 22.779 80.0984 22.7431 79.9085 22.6714C79.7187 22.5997 79.5648 22.4666 79.4468 22.272C79.334 22.0723 79.2775 21.7855 79.2775 21.4116V15.3123H81.6092V13.1615H79.2775V10.3346Z" fill="white"/>
<defs>
<linearGradient id="paint0_linear_1831_2777" x1="27.1371" y1="0.0562001" x2="-3.89939" y2="42.1753" gradientUnits="userSpaceOnUse">
<stop stop-color="#69E1B9"/>
<stop offset="1" stop-color="#818BEF"/>
</linearGradient>
<radialGradient id="paint1_radial_1831_2777" cx="0" cy="0" r="1" gradientUnits="userSpaceOnUse" gradientTransform="translate(19.0615 21.6581) rotate(-61.2194) scale(20.9026 17.1921)">
<stop stop-color="#D7821F"/>
<stop offset="1" stop-color="#BF36D6"/>
</radialGradient>
</defs>
</svg>
