<svg width="127" height="31" viewBox="0 0 127 31" fill="none" xmlns="http://www.w3.org/2000/svg">
<path d="M10.3831 0.346771H11.9805V3.30927H10.3831V0.346771Z" fill="#B0D944"/>
<path d="M9.58442 4.24677V4.84677H7.98701V5.59677H14.3766V4.84677H12.7792V3.68427H11.1818V4.24677H9.58442Z" fill="#B0D944"/>
<path d="M15.974 5.97177H11.1818V6.53427H6.38961V7.88427H15.974V5.97177Z" fill="#B0D944"/>
<path d="M17.5714 8.25927H11.1818V8.82177H4.79221V10.1718H17.5714V8.25927Z" fill="#B0D944"/>
<path d="M17.5714 10.5468H11.1818V11.1093H4.79221V12.4593H17.5714V10.5468Z" fill="#B0D944"/>
<path d="M19.1688 12.8343H11.1818V13.3968H3.19481V14.7468H19.1688V12.8343Z" fill="#B0D944"/>
<path d="M19.1688 15.1218H11.1818V15.6843H3.19481V17.0343H19.1688V15.1218Z" fill="#B0D944"/>
<path d="M20.7662 17.4093H11.1818V17.9718H1.5974V19.3218H20.7662V17.4093Z" fill="#B0D944"/>
<path d="M22.3636 19.6968H11.1818V20.2593H0V21.6093H22.3636V19.6968Z" fill="#B0D944"/>
<path d="M22.3636 21.9843H11.1818V22.5468H0V23.8968H22.3636V21.9843Z" fill="#B0D944"/>
<path d="M22.3636 24.2718H11.1818V24.8343H0V26.1843H22.3636V24.2718Z" fill="#B0D944"/>
<path d="M19.1688 26.5593H11.1818V27.1218H3.19481V28.4718H19.1688V26.5593Z" fill="#B0D944"/>
<path d="M15.974 28.8468H11.1818V29.4093H6.38961V30.3468H15.974V28.8468Z" fill="#B0D944"/>
<path d="M46.8687 13.2155H49.697V21.7003H46.8687V24.5286H38.3838V30.1852H32.7273V10.3872H46.8687V13.2155ZM44.0404 21.7003V13.2155H38.3838V21.7003H44.0404Z" fill="#B0D944"/>
<path d="M66.6556 10.3872V13.2155H69.4839V18.872H58.1708V21.7003H69.4839V24.5286H55.3425V21.7003H52.5142V13.2155H55.3425V10.3872H66.6556ZM63.8273 13.2155H58.1708V16.0437H63.8273V13.2155Z" fill="#B0D944"/>
<path d="M77.9577 21.7003H83.6143V13.2155H77.9577V21.7003ZM75.1294 21.7003H72.3011V13.2155H75.1294V10.3872H89.2708V24.5286H75.1294V21.7003Z" fill="#B0D944"/>
<path d="M106.229 10.3872V13.2155H103.401V16.0437H100.573V18.872H97.7446V24.5286H92.0881V10.3872H97.7446V13.2155H100.573V10.3872H106.229Z" fill="#B0D944"/>
<path d="M126.036 24.5286H109.066V21.7003H120.379V18.872H109.066V10.3872H126.036V13.2155H114.723V16.0437H126.036V24.5286Z" fill="#B0D944"/>
</svg>
