<svg width="11" height="12" viewBox="0 0 11 12" fill="none" xmlns="http://www.w3.org/2000/svg">
<path d="M5.2005 5.73082L0.574219 11.003C0.574653 11.0039 0.574653 11.0053 0.575088 11.0062C0.717174 11.5787 1.20383 12 1.78174 12C2.0129 12 2.22972 11.9328 2.41569 11.8152L2.43047 11.8059L7.63769 8.57964L5.2005 5.73082Z" fill="#EA4335"/>
<path d="M9.87906 4.83308L9.87472 4.82981L7.62654 3.4306L5.09375 5.85065L7.63566 8.5791L9.87167 7.19388C10.2636 6.9662 10.53 6.5225 10.53 6.01115C10.53 5.5026 10.2675 5.06123 9.87906 4.83308Z" fill="#FBBC04"/>
<path d="M0.573832 0.996589C0.546023 1.1067 0.53125 1.2224 0.53125 1.34184V10.6581C0.53125 10.7776 0.546024 10.8933 0.574267 11.0029L5.35914 5.86562L0.573832 0.996589Z" fill="#4285F4"/>
<path d="M5.23482 6L7.629 3.42971L2.42786 0.191778C2.23884 0.0700054 2.01811 2.14577e-05 1.78217 2.14577e-05C1.20426 2.14577e-05 0.716739 0.422259 0.574653 0.995197C0.574653 0.995663 0.574219 0.99613 0.574219 0.996596L5.23482 6Z" fill="#34A853"/>
</svg>
